<svg xmlns="http://www.w3.org/2000/svg" xml:space="preserve" width="512" height="512" style="background:#101010"><path fill="#fff" stroke="null" d="M440.45 411.04c-14.675 13.084-36.546 3.747-47.047-9.044-22.23-27.075-31.488-57.571-41.93-87.7-4.506-13.004-6.738-26.439-10.218-39.646-1.285-4.875-3.252-8.923-10.991-11.147-14.413-4.141-28.124-9.622-42.215-14.4-3.11-1.055-6.59-1.506-8.977-2.031-9.334 23.611-17.58 46.538-27.517 69.052-10.881 24.655-27.626 47.366-51.537 66.246-22.421 17.705-49.163 30.1-83.839 31.814-19.064.941-35.359-.89-47.394-11.982-3.074-2.833-1.99-8.83-.908-13.106.357-1.412 8.233-3.579 10.031-2.631 4.61 2.428 12.234 4.174 8.205 11.187-2.446 4.26 10.876 12.007 20.163 12.436 27.348 1.262 47.975-8.47 63.011-23.938 38.683-39.794 58.405-86.154 79.871-131.833 1.446-3.077 2.457-6.267 3.68-9.429-19.875-7.397-68.992-3.81-80.342 14.885 3.206 3.68 8.094 6.984 8.55 10.597.323 2.565-4.676 6.829-8.537 7.925-2.951.838-9.748-1.314-11.408-3.545-2.322-3.122-3.476-8.225-1.617-11.312 9.322-15.479 27.466-22.856 48.885-25.18 15.415-1.673 31.24-1.257 47.097-1.78 11.706-28.343 23.018-57.964 36.334-87.078 7.144-15.621 16.977-30.656 27.03-45.416 6.623-9.722 18.436-10.741 35.461-5.384 11.825 3.72 9.035 9.593 7.463 17.15-4.7 22.605-4.355 45.328 1.474 68.007 5.679 22.092 11.41 44.256 14.713 66.585 3.715 25.118 17.274 46.188 37.25 66.345 19.895 20.073 27.856 44.227 30.295 68.919.802 8.117-2.963 16.484-5.036 25.434M316.3 124.23c-1.62 2.695-3.884 5.279-4.762 8.101-10.899 35.046-21.676 70.114-32.099 105.24-.498 1.676 1.997 5.165 4.116 5.741 17.43 4.744 35.101 8.997 50.591 12.871L320.17 117.062l2.738-.291c-2.135 2.009-4.27 4.018-6.608 7.46m92.13 196.491-13.439-13.875-2.637.908 37.9 100.178 4.652-.408c1.153-6.069 3.72-12.204 3.21-18.195-2.06-24.204-12.693-46.5-29.686-68.608z"/><path fill="none" stroke="null" d="M1169.143 23.429h100V227h-100z"/><path fill="#00f" stroke="null" d="M-195.143-101.571h1429v40h-1429z"/><path fill="none" stroke="null" d="m0 0 1024 41M-48.714-55.143H1087V9.143H-48.714z"/><path fill="#56aaff" stroke="null" d="M1024 7h70v1024h-70z"/><path fill="#fff" stroke="null" d="M1003.509 0h20v1024h-20z"/><path fill="#fff" stroke="null" d="M1024 1004v20H0v-20z"/><path fill="#fff" stroke="null" d="M472 21.74h20v469.97h-20V21.74z" opacity="undefined"/><path fill="#fff" stroke="null" d="M491.975 475v20H20.023v-20z"/><path fill="#fff" stroke="null" d="M20 20.464h20v473.239H20z"/><path fill="#fff" stroke="null" d="m492.022 20.3-.017 20-471.979-.387.017-20 471.979.388z" opacity="undefined"/></svg>